<svg xmlns="http://www.w3.org/2000/svg" viewBox="0 0 600 800"><rect width="600" height="800" fill="#24533d"/><rect x="6" y="6" width="88" height="88" rx="12" fill="#f6e7b2"/><rect x="106" y="6" width="88" height="88" rx="12" fill="#f6e7b2"/><rect x="206" y="6" width="88" height="88" rx="12" fill="#f6e7b2"/><rect x="306" y="6" width="88" height="88" rx="12" fill="#f6e7b2"/><rect x="406" y="6" width="88" height="88" rx="12" fill="#f6e7b2"/><rect x="506" y="6" width="88" height="88" rx="12" fill="#f6e7b2"/><rect x="6" y="106" width="88" height="88" rx="12" fill="#f6e7b2"/><rect x="106" y="106" width="88" height="88" rx="12" fill="#f6e7b2"/><rect x="206" y="106" width="88" height="88" rx="12" fill="#f6e7b2"/><rect x="306" y="106" width="88" height="88" rx="12" fill="#f6e7b2"/><rect x="406" y="106" width="88" height="88" rx="12" fill="#f6e7b2"/><rect x="506" y="106" width="88" height="88" rx="12" fill="#f6e7b2"/><rect x="6" y="206" width="88" height="88" rx="12" fill="#f6e7b2"/><rect x="106" y="206" width="88" height="88" rx="12" fill="#f6e7b2"/><rect x="206" y="206" width="88" height="88" rx="12" fill="#f6e7b2"/><rect x="306" y="206" width="88" height="88" rx="12" fill="#f6e7b2"/><rect x="406" y="206" width="88" height="88" rx="12" fill="#f6e7b2"/><rect x="506" y="206" width="88" height="88" rx="12" fill="#f6e7b2"/><rect x="6" y="306" width="88" height="88" rx="12" fill="#77c7d9"/><rect x="106" y="306" width="88" height="88" rx="12" fill="#77c7d9"/><rect x="206" y="306" width="88" height="88" rx="12" fill="#77c7d9"/><rect x="306" y="306" width="88" height="88" rx="12" fill="#77c7d9"/><rect x="406" y="306" width="88" height="88" rx="12" fill="#77c7d9"/><rect x="506" y="306" width="88" height="88" rx="12" fill="#77c7d9"/><rect x="6" y="406" width="88" height="88" rx="12" fill="#f6e7b2"/><rect x="106" y="406" width="88" height="88" rx="12" fill="#f6e7b2"/><rect x="206" y="406" width="88" height="88" rx="12" fill="#f6e7b2"/><rect x="306" y="406" width="88" height="88" rx="12" fill="#f6e7b2"/><rect x="406" y="406" width="88" height="88" rx="12" fill="#f6e7b2"/><rect x="506" y="406" width="88" height="88" rx="12" fill="#f6e7b2"/><rect x="6" y="506" width="88" height="88" rx="12" fill="#f6e7b2"/><rect x="106" y="506" width="88" height="88" rx="12" fill="#f6e7b2"/><rect x="206" y="506" width="88" height="88" rx="12" fill="#f6e7b2"/><rect x="306" y="506" width="88" height="88" rx="12" fill="#f6e7b2"/><rect x="406" y="506" width="88" height="88" rx="12" fill="#f6e7b2"/><rect x="506" y="506" width="88" height="88" rx="12" fill="#f6e7b2"/><rect x="6" y="606" width="88" height="88" rx="12" fill="#f6e7b2"/><rect x="106" y="606" width="88" height="88" rx="12" fill="#f6e7b2"/><rect x="206" y="606" width="88" height="88" rx="12" fill="#f6e7b2"/><rect x="306" y="606" width="88" height="88" rx="12" fill="#f6e7b2"/><rect x="406" y="606" width="88" height="88" rx="12" fill="#f6e7b2"/><rect x="506" y="606" width="88" height="88" rx="12" fill="#f6e7b2"/><rect x="6" y="706" width="88" height="88" rx="12" fill="#f6e7b2"/><rect x="106" y="706" width="88" height="88" rx="12" fill="#f6e7b2"/><rect x="206" y="706" width="88" height="88" rx="12" fill="#f6e7b2"/><rect x="306" y="706" width="88" height="88" rx="12" fill="#f6e7b2"/><rect x="406" y="706" width="88" height="88" rx="12" fill="#f6e7b2"/><rect x="506" y="706" width="88" height="88" rx="12" fill="#f6e7b2"/></svg>