<svg xmlns="http://www.w3.org/2000/svg" viewBox="0 0 512 512" role="img" aria-label="イノシシ"><path fill="#173d2f" d="M95 120l112 49h98l112-49-29 111 25 81c0 85-68 146-157 146S99 397 99 312l25-81z"/><path fill="#c88654" d="M137 180l79 31h80l79-31-17 66 17 70c0 59-51 100-119 100s-119-41-119-100l17-70z"/><ellipse cx="256" cy="332" rx="77" ry="57" fill="#efb677"/><g fill="#173d2f"><circle cx="211" cy="269" r="14"/><circle cx="301" cy="269" r="14"/><ellipse cx="225" cy="331" rx="12" ry="17"/><ellipse cx="287" cy="331" rx="12" ry="17"/></g><path d="M169 334l-39 48 59-9m154-39l39 48-59-9" fill="#fffaf0" stroke="#173d2f" stroke-width="11" stroke-linejoin="round"/></svg>
