<svg xmlns="http://www.w3.org/2000/svg" viewBox="0 0 512 512" role="img" aria-label="ライオン"><g fill="#173d2f"><path d="M256 54l43 31 52-8 20 48 46 28-14 51 22 47-37 38-1 53-51 15-29 44-51-16-51 16-29-44-51-15-1-53-37-38 22-47-14-51 46-28 20-48 52 8z"/><circle cx="256" cy="253" r="132" fill="#f3b75d"/></g><path fill="#173d2f" d="M184 205l49 20-38 28zm144 0l-49 20 38 28zM218 286h76l-38 47z"/><path d="M210 337q46 34 92 0" fill="none" stroke="#173d2f" stroke-width="18" stroke-linecap="round"/></svg>
