<svg xmlns="http://www.w3.org/2000/svg" viewBox="0 0 512 512" role="img" aria-label="シカ"><g fill="none" stroke="#173d2f" stroke-width="25" stroke-linecap="round"><path d="M191 194L132 90m57 59l-66-12m42-47l21-48M321 194l59-104m-57 59l66-12m-42-47l-21-48"/></g><path fill="#173d2f" d="M121 169l90 23h90l90-23-41 107 16 73c0 69-49 116-110 116s-110-47-110-116l16-73z"/><path fill="#d69b59" d="M165 219l57 18h68l57-18-22 65 10 63c0 49-35 81-79 81s-79-32-79-81l10-63z"/><g fill="#173d2f"><circle cx="211" cy="298" r="13"/><circle cx="301" cy="298" r="13"/><path d="M224 348h64l-32 38z"/></g></svg>
