<svg xmlns="http://www.w3.org/2000/svg" viewBox="0 0 512 512" role="img" aria-label="タヌキ"><g fill="#173d2f"><circle cx="154" cy="158" r="67"/><circle cx="358" cy="158" r="67"/><path d="M108 276q0-158 148-158t148 158v37q0 139-148 139T108 313z"/></g><path fill="#b9a985" d="M143 273q0-113 113-113t113 113v39q0 101-113 101T143 312z"/><path fill="#173d2f" d="M149 244q48-47 100 7l-42 63-58-20zm214 0q-48-47-100 7l42 63 58-20zM218 321h76l-38 43z"/><circle cx="207" cy="270" r="13" fill="#fffaf0"/><circle cx="305" cy="270" r="13" fill="#fffaf0"/></svg>
